<?xml version="1.0" encoding="utf-8"?>
<!-- Generator: Adobe Illustrator 21.1.0, SVG Export Plug-In . SVG Version: 6.00 Build 0)  -->
<svg version="1.1" id="Layer_1" xmlns="http://www.w3.org/2000/svg" xmlns:xlink="http://www.w3.org/1999/xlink" x="0px" y="0px"
	 viewBox="0 0 30.7 28.2" style="enable-background:new 0 0 30.7 28.2;" xml:space="preserve">
<style type="text/css">
	.st0{fill:#0099FF;}
</style>
<path class="st0" d="M24.9,1.5H5.7c-1.7,0-3,1.3-3,3v19.2c0,1.6,1.3,3,3,3h19.2c1.6,0,3-1.4,3-3V4.5C27.9,2.8,26.6,1.5,24.9,1.5z
	 M24.6,8.9L12.9,20.6c-0.1,0.1-0.2,0.1-0.4,0.1c-0.1,0-0.3,0-0.4-0.1L6.6,15c-0.1-0.1-0.1-0.2-0.1-0.4c0-0.1,0.1-0.3,0.1-0.4
	l1.8-1.8c0.2-0.2,0.5-0.2,0.7,0l3.4,3.4L22,6.4c0.2-0.2,0.5-0.2,0.7,0l1.8,1.8c0.1,0.1,0.1,0.2,0.1,0.4S24.7,8.8,24.6,8.9z"/>
</svg>
