<?xml version="1.0" encoding="utf-8"?>
<!-- Generator: Adobe Illustrator 21.1.0, SVG Export Plug-In . SVG Version: 6.00 Build 0)  -->
<svg version="1.1" id="Layer_1" xmlns="http://www.w3.org/2000/svg" xmlns:xlink="http://www.w3.org/1999/xlink" x="0px" y="0px"
	 viewBox="0 0 30.7 28.2" style="enable-background:new 0 0 30.7 28.2;" xml:space="preserve">
<style type="text/css">
	.st0{fill:#0099FF;}
</style>
<g>
	<path class="st0" d="M24.9,3.5c0.5,0,1,0.5,1,1v19.2c0,0.5-0.5,1-1,1H5.7c-0.5,0-1-0.5-1-1V4.5c0-0.5,0.5-1,1-1H24.9 M24.9,1.5H5.7
		c-1.7,0-3,1.3-3,3v19.2c0,1.6,1.3,3,3,3h19.2c1.6,0,3-1.4,3-3V4.5C27.9,2.8,26.6,1.5,24.9,1.5L24.9,1.5z"/>
</g>
</svg>
