<?xml version="1.0" encoding="utf-8"?>
<!-- Generator: Adobe Illustrator 17.1.0, SVG Export Plug-In . SVG Version: 6.00 Build 0)  -->
<!DOCTYPE svg PUBLIC "-//W3C//DTD SVG 1.1 Basic//EN" "http://www.w3.org/Graphics/SVG/1.1/DTD/svg11-basic.dtd">
<svg version="1.1" baseProfile="basic" id="Layer_1"
	 xmlns="http://www.w3.org/2000/svg" xmlns:xlink="http://www.w3.org/1999/xlink" x="0px" y="0px" width="240px" height="83px"
	 viewBox="0 0 240 83" xml:space="preserve">
<g>
	<path fill="#FFFFFF" d="M0.0049,49.9116l13.6699-2.8436l3.9669,16.9706l0.0888-0.019l5.1172-18.8585l13.9394-2.8994
		l-0.1396,33.1172l-9.0839,1.8882l0.33-22.8687l-0.0889,0.0181l-5.8516,24.0181l-7.2577,1.50919L8.9679,58.3354l-0.089,0.0176
		l0.2052,22.7578L0,83L0.0049,49.9116z"/>
	<path fill="#FFFFFF" d="M49.1729,60.6323L38.1621,41.9757l9.8418-2.0469l5.4971,11.1835l5.2783-13.4243l11.4883-2.3901
		l-11.3163,23.208l0.0459,12.2242l-9.796,2.038L49.1729,60.6323z"/>
	<path fill="#FFFFFF" d="M91.6123,40.4985c-1.206-5.5415-4.5166-6.7069-9.9481-5.5775c-3.91911,0.8158-7.7246,3.5072-6.7765,8.0365
		c0.7051,3.375,3.5997,3.8853,6.4394,4.1289l3.5978,0.318c4.6425,0.4252,9.1249,0.9755,10.2393,6.3047
		c0.6503,3.1083,0.0829,10.1776-10.2471,12.3251c-7.1251,1.4829-13.0499-0.8535-14.2999-8.6103l3.02731-0.6299
		c0.9785,6.2382,5.168,7.8222,10.9572,6.6186c4.14059-0.8608,8.6123-3.9228,7.618-8.6738c-0.9375-4.4859-5.4687-4.378-9.2002-4.6675
		l-3.3125-0.2837c-3.9189-0.2983-6.96581-1.9804-7.81921-6.0664c-1.32819-6.3516,3.71581-10.2271,9.371-11.4032
		c6.4571-1.3434,12.2051,0.1494,13.3818,7.5512L91.6123,40.4985z"/>
	<path fill="#FFFFFF" d="M99.296,29.2627l3.0282-0.6304l-0.0136,21.042c-0.0284,0.9785,0.05949,1.8403,0.2627,2.8179
		c0.788,4.6558,4.8691,6.1709,10.1231,5.0772c5.7011-1.1856,8.542-4.9273,8.5409-10.4879l0.0117-22.3857l3.0283-0.6294
		l-0.0097,22.6162c0.00111,7.7857-4.1748,12.0366-11.43359,13.5459c-5.5664,1.1583-11.874-0.125-13.21481-6.7505
		c-0.13869-0.6669-0.2344-1.5736-0.2706-2.6313L99.296,29.2627z"/>
	<path fill="#FFFFFF" d="M129.97459,22.8819l12.334-2.5659c4.7657-0.9903,9.1368,0.1396,10.2422,5.4237
		c0.8633,4.1304-1.2471,7.8136-5.24899,9.341l0.01749,0.0897c3.37991-0.2865,6.1114,2.11,6.7989,5.3975
		c1.5596,7.4614-4.06551,11.2261-10.7002,12.6059l-13.7148,2.8526L129.97459,22.8819z M132.7715,52.7002l10.7764-2.2412
		c4.4082-0.9175,8.6562-3.9326,7.6162-8.9068c-0.96489-4.6176-4.83-4.8792-8.70509-4.0747l-9.5742,1.9922L132.7715,52.7002z
		 M132.9258,36.7729l10.01849-2.0834c4.0791-0.9405,7.54401-3.7007,6.6427-8.0083c-0.7511-3.5967-3.57719-4.4457-6.78319-3.7803
		l-9.79701,2.0386L132.9258,36.7729z"/>
	<path fill="#FFFFFF" d="M168.668,14.835l3.29489-0.6851l12.42,30.5044l-3.16109,0.6577l-3.66521-9.5258l-14.5166,3.019
		l-3.81729,11.0815l-3.3838,0.7046L168.668,14.835z M164.0146,35.9141l12.5578-2.6114l-6.20711-16.1332l-0.0889,0.0195
		L164.0146,35.9141z"/>
	<path fill="#FFFFFF" d="M187.59079,10.8994l13.5372-2.8149c5.2988-1.1021,8.89351,0.977,9.9794,6.1733
		c0.9756,4.6631-1.6386,9.0533-6.24789,10.336l0.0175,0.0883c3.1133,0.001,4.6387,1.9556,5.2413,4.8418
		c0.46469,2.2212,0.48329,4.5347,0.93829,6.7096c0.1573,0.7548,0.5343,2.1132,1.1104,2.6425l-3.11819,0.6484
		c-0.4023-0.1474-1.0576-2.8379-1.123-3.1493c-0.38969-1.8652-0.35251-3.9122-0.7422-5.7774
		c-0.6328-3.0191-2.19141-4.92-5.44141-4.2442l-11.22169,2.3336l-0.0399,14.6987l-3.02849,0.6299L187.59079,10.8994z
		 M190.5605,25.9922l10.73149-2.2324c4.5869-0.9541,7.81841-3.9433,6.83501-8.6498c-0.78131-3.7306-2.71971-5.2277-6.59381-4.422
		L190.623,12.9566L190.5605,25.9922z"/>
	<path fill="#FFFFFF" d="M215.0186,5.1953l3.02829-0.6294l-0.0137,21.042c-0.0282,0.979,0.05861,1.8414,0.26271,2.818
		c0.78819,4.6556,4.8683,6.1704,10.123,5.0775c5.7003-1.1854,8.54199-4.9267,8.54109-10.4883l0.0127-22.3852L240,0l-0.01071,22.6162
		c0.0009,7.7853-4.1738,12.0367-11.43269,13.5459c-5.56641,1.1577-11.875-0.125-13.21381-6.751
		c-0.13969-0.6655-0.2363-1.5732-0.2715-2.6313L215.0186,5.1953z"/>
	<path fill="#FFFFFF" d="M120,2.6494L120,2.6494"/>
	<path fill="#FFFFFF" d="M0,24.4761v2.6025L120,2.6494V0L0,24.4761"/>
	<path fill="#FFFFFF" d="M120,0L0,24.4761v2.6025L120,2.6494V0"/>
	<path fill="#FFFFFF" d="M240,58.5708L240,58.5708"/>
	<path fill="#FFFFFF" d="M120,80.3975V83l120-24.4292v-2.6494L120,80.3975"/>
	<path fill="#FFFFFF" d="M240,55.9214L120,80.3975V83l120-24.4292V55.9214"/>
	<path fill="#FFFFFF" d="M240,45.8657L70.6172,80.3839V83L240,48.5146V45.8657z"/>
	<path fill="#FFFFFF" d="M169.3828,0L0,34.5186v2.6157L169.3828,2.6494V0z"/>
</g>
</svg>
