<svg xmlns="http://www.w3.org/2000/svg" width="37.5" height="32" viewBox="0 0 37.5 32">
  <metadata><?xpacket begin="﻿" id="W5M0MpCehiHzreSzNTczkc9d"?>
<x:xmpmeta xmlns:x="adobe:ns:meta/" x:xmptk="Adobe XMP Core 5.6-c138 79.159824, 2016/09/14-01:09:01        ">
   <rdf:RDF xmlns:rdf="http://www.w3.org/1999/02/22-rdf-syntax-ns#">
      <rdf:Description rdf:about=""/>
   </rdf:RDF>
</x:xmpmeta>
                                                                                                    
                                                                                                    
                                                                                                    
                                                                                                    
                                                                                                    
                                                                                                    
                                                                                                    
                                                                                                    
                                                                                                    
                                                                                                    
                                                                                                    
                                                                                                    
                                                                                                    
                                                                                                    
                                                                                                    
                                                                                                    
                                                                                                    
                                                                                                    
                                                                                                    
                                                                                                    
                           
<?xpacket end="w"?></metadata>
<defs>
    <style>
      .cls-1 {
        fill: #20609f;
        fill-rule: evenodd;
      }
    </style>
  </defs>
  <path id="Event_Icon" data-name="Event Icon" class="cls-1" d="M554.27,1285.59a5.032,5.032,0,0,0-.04.62h0A5.032,5.032,0,0,1,554.27,1285.59Zm32.628-4.19a5.788,5.788,0,0,0-4.366-1.9H557.6a6.121,6.121,0,0,0-4.486,1.98,6.507,6.507,0,0,0-1.87,4.66v19.23a6.185,6.185,0,0,0,1.881,4.22,6.03,6.03,0,0,0,4.474,1.91h24.935a5.941,5.941,0,0,0,4.425-1.93,6.1,6.1,0,0,0,1.8-4.4v-18.86A7.306,7.306,0,0,0,586.9,1281.4Zm-32.668,4.81a5.032,5.032,0,0,1,.04-0.62,5.032,5.032,0,0,0-.04.62h0Zm31.872,18.82a3.472,3.472,0,0,1-3.57,3.41H557.6a3.131,3.131,0,0,1-2.416-1,2.919,2.919,0,0,1-.951-2.12v-18.67H586.1v18.38Zm-16.047-15.41,2.5,5.19,5.589,0.83-4.044,4.04,0.954,5.71-5-2.69-5,2.69,0.955-5.71-4.045-4.04,5.59-.83Z" transform="translate(-551.25 -1279.5)"/>
</svg>
