<?xml version="1.0" encoding="utf-8"?>
<!-- Generator: Adobe Illustrator 21.1.0, SVG Export Plug-In . SVG Version: 6.00 Build 0)  -->
<svg version="1.1" id="Layer_2" xmlns="http://www.w3.org/2000/svg" xmlns:xlink="http://www.w3.org/1999/xlink" x="0px" y="0px"
	 viewBox="0 0 150 150" style="enable-background:new 0 0 150 150;" xml:space="preserve">
<style type="text/css">
	.st0{fill:#2060A0;}
	.st1{fill:none;}
	.st2{fill:#FFFFFF;}
</style>
<title>icon_circleHealth</title>
<path class="st0" d="M75,10c-35.9,0-65,29.1-65,65s29.1,65,65,65s65-29.1,65-65l0,0C140,39.1,110.9,10,75,10z"/>
<path class="st0" d="M75,0C33.6,0,0,33.6,0,75s33.6,75,75,75s75-33.6,75-75l0,0C150,33.6,116.4,0,75,0z M75,145.4
	c-38.9,0-70.5-31.6-70.5-70.5S36.1,4.4,75,4.4s70.5,31.6,70.5,70.5l0,0C145.5,113.8,113.9,145.4,75,145.4z"/>
<path class="st1" d="M44.5,113.4c-0.3,0-0.4,0-0.6,0C44.2,113.4,44.3,113.4,44.5,113.4z"/>
<path class="st1" d="M47.8,111.6c-0.9,0.8-1.9,1.4-3,1.6C45.9,113,46.9,112.5,47.8,111.6z"/>
<path class="st1" d="M109.9,108.8c0.6-0.6,0.6-1.8,0-2.4c-0.6-0.6-1.8-0.6-2.4,0c-0.6,0.6-0.6,1.8,0,2.4S109.3,109.4,109.9,108.8
	L109.9,108.8z"/>
<path class="st1" d="M43.3,113.5L43.3,113.5c-0.3,0-0.4,0-0.6,0C42.9,113.5,43.2,113.5,43.3,113.5z"/>
<path class="st1" d="M42.2,113.4l-0.3-0.1L42.2,113.4z"/>
<path class="st1" d="M40.9,113L40.9,113L40.9,113z"/>
<path class="st2" d="M104.3,111.7c2.3,2.4,6.2,2.5,8.6,0.3s2.5-6.2,0.3-8.6c-0.1-0.1-0.1-0.1-0.3-0.3L84.1,74.3l-8.6,8.6
	L104.3,111.7z M106.9,105.8c1-1,2.5-1,3.5,0s1,2.5,0,3.5c-1,1-2.5,1-3.5,0C105.9,108.4,105.9,106.8,106.9,105.8L106.9,105.8
	L106.9,105.8z"/>
<path class="st2" d="M68,58.2c3.4-8.1-0.4-17.5-8.6-20.8c-3.9-1.6-8.3-1.6-12.3,0l5.5,5.5l6.4,6.4l-8.6,8.6l0,0l-12-12
	c-3.4,8.2,0.5,17.5,8.7,20.8c3.9,1.6,8.3,1.6,12.2,0l8.2,8.2l8.6-8.6L68,58.2z"/>
<path class="st2" d="M114.5,40.9l-4.9-4.9l-12.1,7.2L96.6,49l0.4,0.5L58.3,88.2l-2.5-2.5l-16.9,17c-2.5,2.4-2.5,6.4,0,8.9
	c0.6,0.6,1.3,1,2,1.4H41c0.3,0.1,0.6,0.3,0.9,0.3l0.3,0.1c0.3,0,0.4,0,0.6,0s0.4,0,0.6,0c0.3,0,0.4,0,0.6,0s0.4,0,0.6,0l0.3-0.1
	c1.1-0.3,2.1-0.9,3-1.6l17-17l-2.5-2.5l38.7-38.7l0.4,0.5l5.8-0.9L114.5,40.9z"/>
</svg>
