<svg xmlns="http://www.w3.org/2000/svg" width="33.09" height="33" viewBox="0 0 33.09 33">
  <metadata><?xpacket begin="﻿" id="W5M0MpCehiHzreSzNTczkc9d"?>
<x:xmpmeta xmlns:x="adobe:ns:meta/" x:xmptk="Adobe XMP Core 5.6-c138 79.159824, 2016/09/14-01:09:01        ">
   <rdf:RDF xmlns:rdf="http://www.w3.org/1999/02/22-rdf-syntax-ns#">
      <rdf:Description rdf:about=""/>
   </rdf:RDF>
</x:xmpmeta>
                                                                                                    
                                                                                                    
                                                                                                    
                                                                                                    
                                                                                                    
                                                                                                    
                                                                                                    
                                                                                                    
                                                                                                    
                                                                                                    
                                                                                                    
                                                                                                    
                                                                                                    
                                                                                                    
                                                                                                    
                                                                                                    
                                                                                                    
                                                                                                    
                                                                                                    
                                                                                                    
                           
<?xpacket end="w"?></metadata>
<defs>
    <style>
      .cls-1 {
        fill: #20609f;
        fill-rule: evenodd;
      }
    </style>
  </defs>
  <path id="Clock" class="cls-1" d="M1149.1,409.443a0.646,0.646,0,0,0-.49-0.193h-1.38a0.685,0.685,0,0,0-.5.193,0.7,0.7,0,0,0-.19.494V417.5h-4.83a0.662,0.662,0,0,0-.49.193,0.671,0.671,0,0,0-.2.494v1.374a0.669,0.669,0,0,0,.2.494,0.662,0.662,0,0,0,.49.194h6.9a0.647,0.647,0,0,0,.49-0.194,0.669,0.669,0,0,0,.2-0.494v-9.62A0.671,0.671,0,0,0,1149.1,409.443Zm3.32,18.167a11.809,11.809,0,0,1-11.76,0,11.648,11.648,0,0,1-4.27-4.252,11.731,11.731,0,0,1,0-11.725,11.653,11.653,0,0,1,4.27-4.251,11.809,11.809,0,0,1,11.76,0,11.653,11.653,0,0,1,4.27,4.251,11.731,11.731,0,0,1,0,11.725A11.648,11.648,0,0,1,1152.42,427.61Zm2.43-24.394a16.715,16.715,0,0,0-16.62,0,16.477,16.477,0,0,0-6.02,6,16.544,16.544,0,0,0,0,16.556,16.477,16.477,0,0,0,6.02,6,16.715,16.715,0,0,0,16.62,0,16.477,16.477,0,0,0,6.02-6,16.544,16.544,0,0,0,0-16.556A16.477,16.477,0,0,0,1154.85,403.216Z" transform="translate(-1130 -401)"/>
</svg>
