<?xml version="1.0" encoding="utf-8"?>
<!-- Generator: Adobe Illustrator 21.1.0, SVG Export Plug-In . SVG Version: 6.00 Build 0)  -->
<svg version="1.1" id="Layer_1" xmlns="http://www.w3.org/2000/svg" xmlns:xlink="http://www.w3.org/1999/xlink" x="0px" y="0px"
	 viewBox="0 0 108 118.1" style="enable-background:new 0 0 108 118.1;" xml:space="preserve">
<style type="text/css">
	.st0{fill:#0099FF;}
</style>
<title>icon_locate</title>
<path class="st0" d="M86.6,21.7c-1.7-4.2-4.2-8-7.3-11.3c-3.1-3.2-6.8-5.8-10.9-7.6C64.1,0.9,59.6,0,55,0s-9.1,0.9-13.3,2.8
	c-4.1,1.8-7.8,4.4-10.9,7.6s-5.6,7.1-7.3,11.3c-1.8,4.4-2.7,9-2.7,13.8c0,2.3,0.1,4.6,0.3,6.9s0.5,4.8,1,7.3c0.4,2.5,1,5,1.6,7.5
	c0.6,2.6,1.4,5.2,2.2,7.8c0.7,2.1,1.4,4.2,2.2,6.3c0.8,2.1,1.6,4.3,2.5,6.5s1.9,4.4,2.9,6.6s2.2,4.4,3.3,6.7c2,3.8,3.9,7.3,5.8,10.4
	c1.9,3.1,3.6,5.8,5.1,8.1c1.5,2.3,2.7,4,3.7,5.3c0.9,1.3,1.5,2,1.5,2.1c0.3,0.3,0.6,0.6,0.9,0.8c0.8,0.4,1.7,0.4,2.5,0
	c0.4-0.2,0.7-0.5,1-0.8c0.1-0.1,0.6-0.8,1.5-2.1c0.9-1.3,2.2-3.1,3.7-5.3s3.2-5,5.1-8.1s3.8-6.6,5.7-10.3c1.2-2.2,2.3-4.4,3.3-6.7
	s2-4.4,2.9-6.6s1.8-4.3,2.5-6.5c0.8-2.1,1.5-4.2,2.2-6.3c0.8-2.7,1.5-5.3,2.2-7.8c0.6-2.6,1.2-5.1,1.6-7.6s0.7-4.9,1-7.3
	s0.3-4.7,0.3-6.9C89.3,30.7,88.4,26,86.6,21.7z M70.8,42.3c-3.7,9-13.7,13.2-22.4,9.4c-8.7-3.8-12.8-14.2-9.1-23.2
	c0.9-2.1,2.1-4,3.7-5.6c1.6-1.6,3.4-2.9,5.4-3.8c4.3-1.8,9.1-1.8,13.3,0c2,0.9,3.9,2.2,5.4,3.8c3.2,3.3,5,7.8,5,12.5
	C72.1,37.8,71.7,40.1,70.8,42.3z"/>
</svg>
