<svg id="Layer_1" data-name="Layer 1" xmlns="http://www.w3.org/2000/svg" viewBox="0 0 105.21 84.22"><defs><style>.cls-1{fill:#09f;}</style></defs><title>icon_map</title><path class="cls-1" d="M98.27,74.12L80.59,63.18V9.94L98.27,20.88V74.12ZM73.86,63.18L56,74.12V20.88L73.86,9.94V63.18ZM49.24,74.12L31.56,63.18V9.94L49.24,20.88V74.12ZM24.62,63.18L6.94,74.12V20.88L24.62,9.94V63.18Zm78.91-47.35L78.91,0.47a3.23,3.23,0,0,0-3.37,0L52.61,14.78,29.88,0.47a3.62,3.62,0,0,0-3.58,0L1.68,15.83A3.71,3.71,0,0,0,0,19V80.44a3.46,3.46,0,0,0,1.68,3.16,3.61,3.61,0,0,0,3.58,0L28,69.28,50.92,83.59a3.61,3.61,0,0,0,3.58,0L77.23,69.28,100,83.59a3.39,3.39,0,0,0,1.89.63,2.8,2.8,0,0,0,1.68-.63,3.46,3.46,0,0,0,1.68-3.16V19A3.71,3.71,0,0,0,103.53,15.83Z"/></svg>