<?xml version="1.0" encoding="utf-8"?>
<!-- Generator: Adobe Illustrator 19.2.1, SVG Export Plug-In . SVG Version: 6.00 Build 0)  -->
<svg version="1.1" id="Isolation_Mode" xmlns="http://www.w3.org/2000/svg" xmlns:xlink="http://www.w3.org/1999/xlink" x="0px"
	 y="0px" viewBox="0 0 112 112" style="enable-background:new 0 0 112 112;" xml:space="preserve">
<style type="text/css">
	.st0{fill:#2060A0;}
	.st1{fill:#FFFFFF;}
</style>
<path class="st0" d="M56,0C25.1,0,0,25.1,0,56c0,30.9,25.1,56,56,56s56-25.1,56-56C112,25.1,86.9,0,56,0L56,0z M56,108.6
	C27,108.6,3.4,85,3.4,56C3.4,27,27,3.4,56,3.4c29,0,52.6,23.6,52.6,52.6C108.6,85,85,108.6,56,108.6L56,108.6z"/>
<path class="st0" d="M56,6.7C28.8,6.7,6.7,28.8,6.7,56c0,27.2,22.1,49.3,49.3,49.3c27.2,0,49.3-22.1,49.3-49.3
	C105.3,28.8,83.2,6.7,56,6.7L56,6.7z"/>
<path class="st1" d="M59,90.9c-3.6-0.2-6.8-1.3-9.9-2.9c-7-3.4-12.9-8.1-17.9-14c-3.7-4.4-6.7-9.2-8.7-14.5c-1-2.6-1.6-5.3-1.5-8.1
	c0.1-1.8,0.8-3.3,2.1-4.4c1.4-1.3,2.7-2.7,4.1-4c1.8-1.8,4-1.8,5.8,0c1.1,1.1,2.1,2.1,3.3,3.3c1,1,2.1,2.1,3.2,3.2
	c1.8,1.8,1.8,4.1,0,5.9c-1.3,1.3-2.7,2.7-4,4c-0.4,0.4-0.4,0.6-0.2,1c0.9,2.1,2.1,4,3.6,5.8c2.9,3.6,6.2,6.7,10.1,9.2
	c0.8,0.5,1.8,0.9,2.7,1.4c0.4,0.2,0.7,0.1,1.1-0.2c1.3-1.3,2.7-2.7,4-4.1c1.8-1.8,4-1.8,5.8,0c2.1,2.1,4.4,4.3,6.5,6.5
	c1.8,1.8,1.8,4.1,0,5.8c-1.3,1.3-2.5,2.4-3.7,3.7C63.6,90.5,61.5,91.1,59,90.9z M52.7,57.9l-0.2-0.2c-7.7-8.7-7.3-21.9,1-30.2
	c8.6-8.6,22.6-8.6,31.1,0c8.6,8.6,8.6,22.6,0,31.1C77.3,65.9,66.3,67,57.9,62l-0.1-0.1c-3.3,2.5-6.9,3-9.4,2.6
	c-0.8-0.1-1-1.3-0.2-1.6C50.4,61.9,51.9,59.7,52.7,57.9z M66.3,33.1c0,2,1.6,3.6,3.6,3.6c1.9,0,3.6-1.6,3.6-3.6s-1.6-3.6-3.6-3.6
	C67.9,29.5,66.3,31.1,66.3,33.1z M63.6,40c0.4,0.1,0.8,0.1,1.2,0.2c0.9,0.1,1.3,0.4,1.2,1.4c0,0.1,0,0.3,0,0.4
	c-0.4,2.2-0.8,4.5-1.2,6.7c-0.2,1.3-0.4,2.6-0.6,3.8c-0.3,1.9,1.6,3.7,3,3.8c0.9,0.1,1.8,0.1,2.6,0.1c1.8,0,3.4-0.8,4.7-2.1
	c0.2-0.2,0.4-0.5,0.5-0.9c0.1-0.5-0.3-0.9-0.8-0.7c-0.4,0.1-0.7,0.4-1,0.5c-0.4,0.1-0.9,0.3-1.3,0.4c-0.5,0.1-1-0.2-1.1-0.7
	c-0.1-0.4-0.1-0.8-0.1-1.3c0.1-0.9,0.3-1.7,0.4-2.5c0.4-2.6,1-5.1,1.4-7.7c0.1-0.7,0.2-1.4,0.2-2.1c0-0.8-0.5-1.3-1.3-1.3
	c-1.2,0-2.4,0-3.5,0s-2.2,0-3.3,0c-0.3,0-0.5,0-0.8,0.1c-0.5,0.1-0.7,0.4-0.8,0.7C62.9,39.5,63,39.8,63.6,40z"/>
</svg>
