<svg xmlns="http://www.w3.org/2000/svg" width="84.97" height="84.969" viewBox="0 0 84.97 84.969">
  <metadata><?xpacket begin="﻿" id="W5M0MpCehiHzreSzNTczkc9d"?>
<x:xmpmeta xmlns:x="adobe:ns:meta/" x:xmptk="Adobe XMP Core 5.6-c138 79.159824, 2016/09/14-01:09:01        ">
   <rdf:RDF xmlns:rdf="http://www.w3.org/1999/02/22-rdf-syntax-ns#">
      <rdf:Description rdf:about=""/>
   </rdf:RDF>
</x:xmpmeta>
                                                                                                    
                                                                                                    
                                                                                                    
                                                                                                    
                                                                                                    
                                                                                                    
                                                                                                    
                                                                                                    
                                                                                                    
                                                                                                    
                                                                                                    
                                                                                                    
                                                                                                    
                                                                                                    
                                                                                                    
                                                                                                    
                                                                                                    
                                                                                                    
                                                                                                    
                                                                                                    
                           
<?xpacket end="w"?></metadata>
<defs>
    <style>
      .cls-1 {
        fill: #20609f;
        fill-rule: evenodd;
      }
    </style>
  </defs>
  <path id="Icon" class="cls-1" d="M1683.58,379.128v-6.856h-5.4v-11.82l-3.82-5.3-3.83,5.3v11.82h-6.42v-11.82l-3.82-5.3-3.82,5.3v11.82h-6.42v-11.82l-3.82-5.3-3.83,5.3v11.82h-6.41v-11.82l-3.83-5.3-3.82,5.3v11.82h-5.4v6.856h5.4v18.459h-5.4v6.856h5.4v4.79h7.65v-4.79h6.41v4.79h7.65v-4.79h6.42v4.79h7.64v-4.79h6.42v4.79h7.65v-4.79h5.4v-6.856h-5.4V379.128h5.4Zm-47.59,18.459V379.128h6.41v18.459h-6.41Zm14.06,0V379.128h6.42v18.459h-6.42Zm20.48,0h-6.42V379.128h6.42v18.459ZM1653.54,427v-2.575c1.23,0,2.47-.058,3.69-0.17l0.23,2.565C1656.17,426.943,1654.85,427,1653.54,427Zm-3.92-.176c-1.29-.118-2.6-0.3-3.88-0.535l0.47-2.532c1.2,0.222,2.43.391,3.65,0.5Zm11.73-.544-0.47-2.532c1.2-.224,2.41-0.507,3.58-0.842l0.71,2.477C1663.92,425.743,1662.63,426.045,1661.35,426.284Zm-19.43-.884c-1.26-.355-2.51-0.773-3.73-1.244l0.93-2.4c1.14,0.442,2.32.835,3.5,1.169Zm26.97-1.262-0.93-2.4c1.14-.443,2.27-0.945,3.37-1.492l1.15,2.3C1671.31,423.133,1670.1,423.667,1668.89,424.138Zm-34.29-1.566c-1.16-.581-2.32-1.224-3.43-1.911l1.36-2.189c1.04,0.645,2.12,1.249,3.22,1.794Zm41.3-1.936-1.36-2.187c1.04-.646,2.07-1.348,3.04-2.087l1.56,2.053C1678.1,419.2,1677.01,419.949,1675.9,420.636Zm-47.96-2.193c-1.04-.785-2.06-1.628-3.02-2.506l1.73-1.9c0.91,0.825,1.86,1.617,2.84,2.355Zm54.21-2.537-1.73-1.9c0.9-.826,1.78-1.7,2.61-2.608l1.9,1.735C1684.05,414.094,1683.12,415.027,1682.15,415.906Zm-60.01-2.741c-0.88-.963-1.73-1.977-2.51-3.016l2.05-1.555c0.74,0.976,1.53,1.929,2.36,2.834Zm65.3-3.052-2.06-1.553c0.74-.979,1.44-2,2.09-3.041l2.19,1.357C1688.97,407.983,1688.22,409.072,1687.44,410.113Zm-70.04-3.2c-0.68-1.108-1.33-2.26-1.91-3.425l2.3-1.151c0.55,1.094,1.15,2.176,1.8,3.216Zm74.17-3.468-2.31-1.149c0.55-1.1,1.05-2.231,1.49-3.372l2.41,0.931C1692.68,401.073,1692.15,402.281,1691.57,403.448ZM1613.9,399.9c-0.47-1.215-.89-2.467-1.25-3.72l2.47-.706c0.34,1.176.74,2.352,1.18,3.493Zm80.5-3.768-2.48-.7a36.776,36.776,0,0,0,.84-3.589l2.54,0.471C1695.06,393.6,1694.76,394.883,1694.4,396.136Zm-82.65-3.773c-0.24-1.279-.42-2.586-0.54-3.886l2.56-.237c0.11,1.221.29,2.449,0.51,3.65Zm84.08-3.935-2.56-.235c0.11-1.216.17-2.455,0.17-3.683v-0.091l2.57-.01v0.1C1696.01,385.816,1695.95,387.134,1695.83,388.428Zm-82.23-3.87h-2.58v-0.053c0-1.284.06-2.586,0.18-3.864l2.56,0.232c-0.11,1.2-.16,2.425-0.16,3.637v0.048Zm79.66-3.824c-0.11-1.221-.29-2.449-0.51-3.65l2.53-.476c0.24,1.279.42,2.586,0.54,3.886Zm-79-3.513-2.53-.467c0.24-1.283.54-2.569,0.89-3.822l2.48,0.7C1614.77,374.809,1614.49,376.017,1614.26,377.221Zm77.64-3.723c-0.34-1.176-.73-2.35-1.18-3.492l2.4-.936c0.47,1.216.9,2.467,1.25,3.719Zm-75.63-3.362-2.41-.928c0.47-1.216,1.01-2.424,1.59-3.592l2.3,1.147C1617.21,367.859,1616.71,368.994,1616.27,370.136Zm72.95-3.5c-0.55-1.093-1.15-2.175-1.8-3.215l2.19-1.362c0.69,1.107,1.33,2.258,1.92,3.423Zm-69.68-3.1-2.19-1.355c0.69-1.108,1.43-2.2,2.22-3.239l2.06,1.551C1620.89,361.476,1620.19,362.5,1619.54,363.541Zm65.79-3.152c-0.74-.975-1.54-1.928-2.37-2.831l1.9-1.739c0.88,0.961,1.73,1.974,2.52,3.012Zm-61.35-2.73-1.91-1.733c0.88-.964,1.81-1.9,2.78-2.778l1.73,1.9C1625.68,355.874,1624.8,356.753,1623.98,357.659Zm56.37-2.7c-0.9-.824-1.86-1.615-2.84-2.352l1.55-2.057c1.04,0.784,2.06,1.626,3.02,2.5Zm-50.93-2.269-1.56-2.052c1.04-.788,2.13-1.537,3.23-2.225l1.36,2.186C1631.41,351.243,1630.39,351.946,1629.42,352.687Zm45.05-2.163c-1.04-.644-2.13-1.246-3.23-1.791l1.15-2.306c1.17,0.579,2.32,1.22,3.43,1.906Zm-38.8-1.729-1.16-2.3c1.17-.584,2.38-1.12,3.59-1.592l0.94,2.4C1637.9,347.743,1636.76,348.246,1635.67,348.8Zm32.2-1.546c-1.14-.44-2.32-0.832-3.5-1.164l0.7-2.479c1.26,0.354,2.51.771,3.73,1.24Zm-25.34-1.126-0.71-2.476c1.25-.358,2.54-0.662,3.82-0.9l0.48,2.531C1644.91,345.5,1643.7,345.787,1642.53,346.123Zm18.25-.872c-1.2-.221-2.43-0.389-3.65-0.5l0.23-2.565c1.3,0.116,2.61.3,3.89,0.53Zm-11.01-.485-0.24-2.565c1.29-.12,2.61-0.183,3.91-0.185l0.01,2.575C1652.22,344.594,1650.98,344.652,1649.77,344.766Z" transform="translate(-1611.03 -342.031)"/>
</svg>
