<svg xmlns="http://www.w3.org/2000/svg" viewBox="0 0 100 100"><defs><style>.cls-1{fill:#305e9e;}.cls-2{fill:#fff;}</style></defs><title>Asset 5</title><g id="Layer_2" data-name="Layer 2"><g id="Layer_1-2" data-name="Layer 1"><path class="cls-1" d="M100,50A50,50,0,1,1,50,0a50,50,0,0,1,50,50"/><path class="cls-2" d="M57,80.65a6.93,6.93,0,0,1-5.83,2.24,23.7,23.7,0,0,1-9.27-2.69A51.63,51.63,0,0,1,25.12,67,46.14,46.14,0,0,1,17,53.36a17.7,17.7,0,0,1-1.35-7.63,6.45,6.45,0,0,1,1.94-4.19c1.27-1.2,2.54-2.54,3.81-3.81a3.64,3.64,0,0,1,5.46,0L29.9,40.8c1,1,2,1.94,3,3,1.72,1.79,1.72,3.81,0,5.53-1.27,1.27-2.47,2.54-3.74,3.74a.82.82,0,0,0-.22,1,22.86,22.86,0,0,0,3.36,5.46,37.15,37.15,0,0,0,9.5,8.6c.82.52,1.65.82,2.47,1.27a.75.75,0,0,0,1-.21v0l3.81-3.81a3.55,3.55,0,0,1,5.38,0l6.06,6.06a3.61,3.61,0,0,1,0,5.53C59.36,78.33,58.17,79.45,57,80.65Zm18.1-28.12A20.76,20.76,0,0,1,50,55.75h-.07a11.58,11.58,0,0,1-8.82,2.39.79.79,0,0,1-.22-1.5,10,10,0,0,0,4.26-4.79l-.22-.15a20.74,20.74,0,1,1,30.21.82ZM58,28.53a3.36,3.36,0,1,0,0-.08S58,28.51,58,28.53Zm7.4,18.69a3.87,3.87,0,0,1-1,.45,6.32,6.32,0,0,1-1.27.37.91.91,0,0,1-1-.75,3.13,3.13,0,0,1-.07-1.2c.07-.82.22-1.57.37-2.39l1.35-7.18A9.14,9.14,0,0,0,64,34.59a1.16,1.16,0,0,0-1.12-1.2H56.37a2.54,2.54,0,0,0-.75.07.8.8,0,0,0-.75.67.75.75,0,0,0,.6.82,6,6,0,0,0,1.12.22,1.09,1.09,0,0,1,1.12,1.35v.37L56.6,43.19c-.22,1.2-.37,2.39-.52,3.66a3.66,3.66,0,0,0,2.84,3.66,13.68,13.68,0,0,0,2.47.15,6.13,6.13,0,0,0,4.49-2,1.78,1.78,0,0,0,.45-.82.63.63,0,0,0-.9-.6Z"/></g></g></svg>