<svg xmlns="http://www.w3.org/2000/svg" width="40.031" height="40" viewBox="0 0 40.031 40">
  <metadata><?xpacket begin="﻿" id="W5M0MpCehiHzreSzNTczkc9d"?>
<x:xmpmeta xmlns:x="adobe:ns:meta/" x:xmptk="Adobe XMP Core 5.6-c138 79.159824, 2016/09/14-01:09:01        ">
   <rdf:RDF xmlns:rdf="http://www.w3.org/1999/02/22-rdf-syntax-ns#">
      <rdf:Description rdf:about=""/>
   </rdf:RDF>
</x:xmpmeta>
                                                                                                    
                                                                                                    
                                                                                                    
                                                                                                    
                                                                                                    
                                                                                                    
                                                                                                    
                                                                                                    
                                                                                                    
                                                                                                    
                                                                                                    
                                                                                                    
                                                                                                    
                                                                                                    
                                                                                                    
                                                                                                    
                                                                                                    
                                                                                                    
                                                                                                    
                                                                                                    
                           
<?xpacket end="w"?></metadata>
<defs>
    <style>
      .cls-1 {
        fill: #20609f;
        fill-rule: evenodd;
      }
    </style>
  </defs>
  <path id="MyRetailer-icon" class="cls-1" d="M304.01,527.418h-3.35a1.062,1.062,0,0,0-.436.221l-1.231-4.837-0.245.269-1.97.344,0.815,3.248,0.413,1.769a2.9,2.9,0,0,1-2.742,2.276H278.9a2.9,2.9,0,0,1-2.743-2.273l0.413-1.7,1.109-4.435,0.015,0.06c0.111-.6.357-1.518,0.721-1.518h14.7L295.867,518a4.212,4.212,0,0,0-1.7-.455H279.989c-2.569,0-4.128,2.1-4.542,4.251l-1.514,5.88a1.129,1.129,0,0,0-.464-0.262H270.12a1.13,1.13,0,0,0-.936,1.135v0.807a0.932,0.932,0,0,0,.934.93l1.269,0.217a5.827,5.827,0,0,0-.628,2.713l-0.47,5.354a3.841,3.841,0,0,0-.109.472,2.019,2.019,0,0,0-.172.3v7.9a1.842,1.842,0,0,0,1.946,1.554h2.54a1.29,1.29,0,0,0,1.286-1.554v-3.381h22.263v3.381a1.539,1.539,0,0,0,1.622,1.554h2.541a1.528,1.528,0,0,0,1.609-1.554v-7.9a1.686,1.686,0,0,0,0-.3,4.042,4.042,0,0,0,.044-0.472l-0.462-5.354a5.842,5.842,0,0,0-.628-2.719l1.091-.211a0.815,0.815,0,0,0,.783-0.93v-0.807C304.64,528.038,304.525,527.418,304.01,527.418Zm-26.665,13.249a2.514,2.514,0,1,1,2.52-2.514A2.518,2.518,0,0,1,277.345,540.667Zm14.1-1.855a0.963,0.963,0,0,1-.776.943H283.6c-0.414,0-.4-0.529-0.4-0.943v-2.1c0-.413-0.015-1.068.4-1.068h7.071a1.113,1.113,0,0,1,.776,1.068v2.1Zm5.369,1.855a2.514,2.514,0,1,1,2.52-2.514A2.518,2.518,0,0,1,296.816,540.667Zm3.228-30.307a5.325,5.325,0,0,0-1.237,5.607l-10.873,10.845,0.789,1.858,3.088-.113,1.132-2.2,2.159-.586,0.54-2.984,2.633-.443L301.627,519A5.343,5.343,0,1,0,300.044,510.36Zm0.013,6.843-10.383,10.355a0.366,0.366,0,0,1-.518-0.516l10.383-10.355A0.366,0.366,0,1,1,300.057,517.2Zm6.193-3.7a1.259,1.259,0,1,1,0-1.779A1.261,1.261,0,0,1,306.25,513.5Z" transform="translate(-269.188 -508.812)"/>
</svg>
