<svg id="Layer_1" data-name="Layer 1" xmlns="http://www.w3.org/2000/svg" viewBox="0 0 96.8 96.8"><defs><style>.cls-1{fill:#09f;}</style></defs><title>icon_web</title><path class="cls-1" d="M66.71,69.86A77.45,77.45,0,0,0,36.61,95.53,54.64,54.64,0,0,0,48.4,96.8a46.77,46.77,0,0,0,20.41-4.42,71.18,71.18,0,0,0,1.47-15.15,47.56,47.56,0,0,0-.21-5.47A13.61,13.61,0,0,1,66.71,69.86ZM81,12.63a77.6,77.6,0,0,0-22.09,5.68v1.05a10.5,10.5,0,0,1-1.05,4.42A82.24,82.24,0,0,1,73.44,51.55a10.49,10.49,0,0,1,9.26,6.31,71.48,71.48,0,0,0,13.68-2.53c0.21-2.31.42-4.63,0.42-6.94A48.46,48.46,0,0,0,81,12.63ZM61.66,64.39A79.53,79.53,0,0,1,29,51.34a10.19,10.19,0,0,1-5.47,1.47,7.16,7.16,0,0,1-2.1-.21A75,75,0,0,0,13,81.44,45.64,45.64,0,0,0,29.67,93,82.54,82.54,0,0,1,61.66,64.39Zm15.78,6.94c0,1.89.21,4,.21,5.89A82.23,82.23,0,0,1,77,87.54,47.88,47.88,0,0,0,94.48,63.13,51.31,51.31,0,0,1,83.12,65,10,10,0,0,1,77.44,71.33ZM64,57.45a10.71,10.71,0,0,1,2.74-3.37,71,71,0,0,0-14.1-25.25,12.3,12.3,0,0,1-4,.84,9.57,9.57,0,0,1-5.89-2.1A74.44,74.44,0,0,0,32.41,37a12.5,12.5,0,0,1,1.47,5.47,16.24,16.24,0,0,1-.42,3.16A74,74,0,0,0,64,57.45ZM48.61,9a9.87,9.87,0,0,1,6.94,2.74,80,80,0,0,1,17-5.26A49.5,49.5,0,0,0,48.4,0a51,51,0,0,0-17,3.16,87.24,87.24,0,0,1,12,7.36A9.5,9.5,0,0,1,48.61,9ZM13.26,42.51a12.3,12.3,0,0,1,.84-4A68.94,68.94,0,0,1,5.26,26.72a47.59,47.59,0,0,0,1.68,46.5,81.91,81.91,0,0,1,8.42-24.41A10.82,10.82,0,0,1,13.26,42.51ZM23.57,32.2a12.42,12.42,0,0,1,2.95.42,100.64,100.64,0,0,1,12.2-10.94,9,9,0,0,1-.42-2.31A8.72,8.72,0,0,1,38.93,16a73.13,73.13,0,0,0-16-8.63A47.46,47.46,0,0,0,9.47,19.78a68.39,68.39,0,0,0,9.68,13.47A9.78,9.78,0,0,1,23.57,32.2Z"/></svg>