<svg xmlns="http://www.w3.org/2000/svg" width="40" height="27" viewBox="0 0 40 27">
  <metadata><?xpacket begin="﻿" id="W5M0MpCehiHzreSzNTczkc9d"?>
<x:xmpmeta xmlns:x="adobe:ns:meta/" x:xmptk="Adobe XMP Core 5.6-c138 79.159824, 2016/09/14-01:09:01        ">
   <rdf:RDF xmlns:rdf="http://www.w3.org/1999/02/22-rdf-syntax-ns#">
      <rdf:Description rdf:about=""/>
   </rdf:RDF>
</x:xmpmeta>
                                                                                                    
                                                                                                    
                                                                                                    
                                                                                                    
                                                                                                    
                                                                                                    
                                                                                                    
                                                                                                    
                                                                                                    
                                                                                                    
                                                                                                    
                                                                                                    
                                                                                                    
                                                                                                    
                                                                                                    
                                                                                                    
                                                                                                    
                                                                                                    
                                                                                                    
                                                                                                    
                           
<?xpacket end="w"?></metadata>
<defs>
    <style>
      .cls-1 {
        fill: #20609f;
        fill-rule: evenodd;
      }
    </style>
  </defs>
  <path id="Message_Icon" data-name="Message Icon" class="cls-1" d="M564.178,1153.79A5.761,5.761,0,0,0,559.9,1152H532.225a6.1,6.1,0,0,0-4.394,1.87,6.033,6.033,0,0,0-1.831,4.4v14.94a5.742,5.742,0,0,0,1.842,3.99,6.01,6.01,0,0,0,4.383,1.8H559.9a5.956,5.956,0,0,0,4.334-1.82,5.645,5.645,0,0,0,1.764-4.15v-14.6A6.758,6.758,0,0,0,564.178,1153.79Zm-31.953,1.1H559.9a3.423,3.423,0,0,1,1.842.51l-15.569,10.17-15.9-10.05A3.14,3.14,0,0,1,532.225,1154.89Zm31.173,18a3.032,3.032,0,0,1-1.05,2.31,3.276,3.276,0,0,1-2.446.91H532.225a3.126,3.126,0,0,1-2.367-.94,2.7,2.7,0,0,1-.931-2v-14.84a4.52,4.52,0,0,1,.039-0.58l17.233,10.89,17.1-11.18a3.378,3.378,0,0,1,.1.81v14.62Z" transform="translate(-526 -1152)"/>
</svg>
