<?xml version="1.0" encoding="utf-8"?>
<!-- Generator: Adobe Illustrator 21.0.2, SVG Export Plug-In . SVG Version: 6.00 Build 0)  -->
<svg version="1.1" id="Layer_1" xmlns="http://www.w3.org/2000/svg" xmlns:xlink="http://www.w3.org/1999/xlink" x="0px" y="0px"
	 viewBox="0 0 37 36" style="enable-background:new 0 0 37 36;" xml:space="preserve">
<style type="text/css">
	.st0{fill:#20609F;}
</style>
<path id="Horn_LIght" class="st0" d="M37,21.5c0-0.2-0.1-0.4-0.4-0.4c0,0,0,0-0.1,0c-0.3,0-0.6,0.1-0.7,0.4
	c-0.4,0.9-2.8,1.2-7.7,1.2h-4.5c-18,0-21.9-4.3-21.9-9.5c0-0.3-0.2-0.5-0.5-0.5c0,0,0,0,0,0H0.5c-0.3,0-0.5,0.2-0.5,0.5c0,0,0,0,0,0
	v22.3c0,0.3,0.2,0.5,0.5,0.5c0,0,0,0,0,0h0.7c0.3,0,0.5-0.2,0.5-0.5c0-3.3,1.6-6.3,7.3-7.9c0.3-0.1,0.4,0,0.2,0.4
	c-0.3,0.5-0.4,1.1-0.4,1.7c0,3.5,5.4,6.4,12.1,6.4c6.7,0,12.1-2.9,12.1-6.4c-0.1-1.3-0.7-2.4-1.6-3.2C31,26.2,31.1,26,31.4,26
	c2.7,0.1,4.1,0.5,4.4,1.1c0.2,0.3,0.4,0.4,0.7,0.4c0.2,0,0.4-0.1,0.4-0.4c0,0,0,0,0-0.1L37,21.5L37,21.5z M20.8,33.6
	c-5.1,0-9.2-1.7-9.2-4c0-1.5,1.4-3.2,7.4-3.6c0.7-0.1,3-0.1,3.7-0.1c3.3-0.1,7.3,1.2,7.3,3.7C30,31.9,25.9,33.6,20.8,33.6L20.8,33.6
	z M28.2,13.7c0.1-0.6-0.2-1.3-0.9-1.4c0,0,0,0,0,0l-2.5-0.6c-0.6-0.2-1.3,0.2-1.4,0.8c0,0,0,0,0,0c-0.1,0.4,0,0.9,0.3,1.2
	c0.2,0.1,0.3,0.2,0.5,0.3l2.5,0.6C27.3,14.8,28,14.4,28.2,13.7C28.2,13.8,28.2,13.8,28.2,13.7L28.2,13.7z M22.9,4
	c0.1,0.2,0.2,0.4,0.4,0.5c0.3,0.3,0.8,0.4,1.1,0.2L26.9,4c0.6-0.2,1-0.8,0.8-1.5c-0.2-0.6-0.8-1-1.5-0.8c0,0,0,0,0,0l-2.5,0.8
	C23.1,2.7,22.7,3.4,22.9,4C22.9,4,22.9,4,22.9,4L22.9,4z M24.1,9.1c0.2,0.2,0.6,0.3,0.9,0.3l3.2-0.1c0.7,0,1.2-0.6,1.2-1.3
	S28.7,6.9,28,6.9l-3.2,0.2c-0.6,0-1.1,0.5-1.1,1.2c0,0,0,0,0,0.1C23.8,8.6,23.9,8.9,24.1,9.1L24.1,9.1z M17.7,15.9
	c-0.6,0-2.2-2.8-2.4-6.9c-0.1-4.2,1.2-7.1,1.8-7.1c0.6,0,2.2,2.8,2.3,6.9C19.6,13,18.2,15.9,17.7,15.9L17.7,15.9z M17.3,0
	C15.4,0.1,5.5,2.3,5.8,9.4s10.3,8.5,12.2,8.4s3.2-4.1,3-9.1S19.2-0.1,17.3,0L17.3,0z"/>
</svg>
