<svg xmlns="http://www.w3.org/2000/svg" width="32" height="32" viewBox="0 0 32 32">
  <metadata><?xpacket begin="﻿" id="W5M0MpCehiHzreSzNTczkc9d"?>
<x:xmpmeta xmlns:x="adobe:ns:meta/" x:xmptk="Adobe XMP Core 5.6-c138 79.159824, 2016/09/14-01:09:01        ">
   <rdf:RDF xmlns:rdf="http://www.w3.org/1999/02/22-rdf-syntax-ns#">
      <rdf:Description rdf:about=""/>
   </rdf:RDF>
</x:xmpmeta>
                                                                                                    
                                                                                                    
                                                                                                    
                                                                                                    
                                                                                                    
                                                                                                    
                                                                                                    
                                                                                                    
                                                                                                    
                                                                                                    
                                                                                                    
                                                                                                    
                                                                                                    
                                                                                                    
                                                                                                    
                                                                                                    
                                                                                                    
                                                                                                    
                                                                                                    
                                                                                                    
                           
<?xpacket end="w"?></metadata>
<defs>
    <style>
      .cls-1 {
        fill: #09f;
        fill-rule: evenodd;
      }
    </style>
  </defs>
  <path id="Inactive" class="cls-1" d="M2353.49,809.137a16.1,16.1,0,0,0-16.06,0,15.885,15.885,0,0,0-5.83,5.823,16.139,16.139,0,0,0,0,16.062,15.885,15.885,0,0,0,5.83,5.823,16.1,16.1,0,0,0,16.06,0,15.933,15.933,0,0,0,5.82-5.823,16.074,16.074,0,0,0,0-16.062A15.933,15.933,0,0,0,2353.49,809.137Zm-8.13.529A13.334,13.334,0,1,1,2332.03,823,13.335,13.335,0,0,1,2345.36,809.666ZM2339,822h5v-5h3v5h5v3h-5v5h-3l-0.15-5H2339v-3Z" transform="translate(-2329.47 -807)"/>
</svg>
