<svg id="Layer_2" data-name="Layer 2" xmlns="http://www.w3.org/2000/svg" viewBox="0 0 150 150"><defs><style>.cls-1{fill:#2060a0;}.cls-2{fill:#fff;}</style></defs><title>icon_circleHealth</title><path class="cls-1" d="M58-37a65,65,0,1,0,65,65h0A65,65,0,0,0,58-37Z" transform="translate(17 47)"/><path class="cls-1" d="M26.5,24.3h-15a2,2,0,0,1,0-4h15a2,2,0,0,1,0,4Z" transform="translate(17 47)"/><path class="cls-1" d="M75.5,24.3h-16a2,2,0,0,1,0-4h16a2,2,0,0,1,0,4Z" transform="translate(17 47)"/><path class="cls-2" d="M88.8,54.7a12,12,0,1,1,12-12h0A12,12,0,0,1,88.8,54.7Zm0-20a8,8,0,1,0,8,8A8,8,0,0,0,88.8,34.7Z" transform="translate(17 47)"/><path class="cls-2" d="M113.9,21.7l-.3-1.3-31-4.6C78.1,8.9,65.2.7,64.6.3L64.1,0H16.5C10.7,0,4,10,4,16.5v9.7L0,28V41l15.5,2.5h.4v-.9a10,10,0,0,1,20,0v.9H79v-1a10,10,0,0,1,20,0v1h.1l12.2-1.8.4-1.1C111.7,40.3,115.9,29.3,113.9,21.7ZM57,18.9a9.36,9.36,0,0,1-.4,1.6c-.2.6-.4,1.1-.6,1.6s-.6,1.1-.9,1.6a14.63,14.63,0,0,0-.9,1.3c-.3.5-.7.8-1,1.3A15.38,15.38,0,0,0,52,27.6l-1.3,1.3c-.8.7-1.5,1.3-2.3,1.9a18.61,18.61,0,0,1-2,1.4c-.6.4-1.1.7-1.4.9l-.6.4-.2.1h-.4l-.2-.1-.6-.4a15.14,15.14,0,0,1-1.4-.9c-.6-.4-1.3-.9-2-1.4s-1.5-1.2-2.3-1.9A8,8,0,0,1,36,27.6a13.58,13.58,0,0,0-1.2-1.2,6.42,6.42,0,0,1-1-1.3c-.3-.5-.6-.8-.9-1.3s-.6-1.1-.9-1.6a10.41,10.41,0,0,1-.6-1.6A9.36,9.36,0,0,1,31,19a8.6,8.6,0,0,1-.1-1.6,6.71,6.71,0,0,1,.6-2.8,7.43,7.43,0,0,1,3.9-3.9,7.06,7.06,0,0,1,2.8-.6,3.4,3.4,0,0,1,1,.1c.3.1.7.2,1,.3s.7.3,1,.4.7.4,1,.6a9,9,0,0,1,1,.9,3.92,3.92,0,0,1,.8,1,3.92,3.92,0,0,1,.8-1,9,9,0,0,1,1-.9c.3-.2.7-.4,1-.6a4.18,4.18,0,0,1,1-.4c.3-.1.7-.2,1-.3a3.4,3.4,0,0,1,1-.1,6.71,6.71,0,0,1,2.8.6,7.43,7.43,0,0,1,3.9,3.9,7.06,7.06,0,0,1,.6,2.8,7.57,7.57,0,0,0-.1,1.5Z" transform="translate(17 47)"/><path class="cls-2" d="M25.8,54.7a12,12,0,1,1,12-12h0A12,12,0,0,1,25.8,54.7Zm0-20a8,8,0,1,0,8,8A8,8,0,0,0,25.8,34.7Z" transform="translate(17 47)"/><path class="cls-1" d="M58-47a75,75,0,1,0,75,75h0A75,75,0,0,0,58-47ZM58,98.4a70.5,70.5,0,1,1,70.5-70.5h0A70.55,70.55,0,0,1,58,98.4Z" transform="translate(17 47)"/></svg>