<svg xmlns="http://www.w3.org/2000/svg" width="30" height="36" viewBox="0 0 30 36">
  <metadata><?xpacket begin="﻿" id="W5M0MpCehiHzreSzNTczkc9d"?>
<x:xmpmeta xmlns:x="adobe:ns:meta/" x:xmptk="Adobe XMP Core 5.6-c138 79.159824, 2016/09/14-01:09:01        ">
   <rdf:RDF xmlns:rdf="http://www.w3.org/1999/02/22-rdf-syntax-ns#">
      <rdf:Description rdf:about=""/>
   </rdf:RDF>
</x:xmpmeta>
                                                                                                    
                                                                                                    
                                                                                                    
                                                                                                    
                                                                                                    
                                                                                                    
                                                                                                    
                                                                                                    
                                                                                                    
                                                                                                    
                                                                                                    
                                                                                                    
                                                                                                    
                                                                                                    
                                                                                                    
                                                                                                    
                                                                                                    
                                                                                                    
                                                                                                    
                                                                                                    
                           
<?xpacket end="w"?></metadata>
<defs>
    <style>
      .cls-1 {
        fill: #20609f;
        fill-rule: evenodd;
      }
    </style>
  </defs>
  <path id="Lock" class="cls-1" d="M530.423,1293.71h-3.857v-2.97c0-6.1-2.828-9.74-8.57-9.74-5.656,0-8.57,3.64-8.57,9.74v2.97H505.14a2.5,2.5,0,0,0-2.142,2.54v16.52a3.223,3.223,0,0,0,2.057,2.79l2.571,0.77a14.157,14.157,0,0,0,4.2.67h12.427a14.041,14.041,0,0,0,4.114-.67l2.571-.77a3.224,3.224,0,0,0,2.057-2.79v-16.52A2.893,2.893,0,0,0,530.423,1293.71Zm-16.184,16.7,2.027-6.51a3.36,3.36,0,1,1,3.46,0l2.027,6.51h-7.514Zm8.042-16.7h-8.57v-3.82c0-3.05,1.714-4.66,4.285-4.66s4.285,1.61,4.285,4.66v3.82Z" transform="translate(-503 -1281)"/>
</svg>
