<svg xmlns="http://www.w3.org/2000/svg" width="32" height="32" viewBox="0 0 32 32">
  <metadata><?xpacket begin="﻿" id="W5M0MpCehiHzreSzNTczkc9d"?>
<x:xmpmeta xmlns:x="adobe:ns:meta/" x:xmptk="Adobe XMP Core 5.6-c138 79.159824, 2016/09/14-01:09:01        ">
   <rdf:RDF xmlns:rdf="http://www.w3.org/1999/02/22-rdf-syntax-ns#">
      <rdf:Description rdf:about=""/>
   </rdf:RDF>
</x:xmpmeta>
                                                                                                    
                                                                                                    
                                                                                                    
                                                                                                    
                                                                                                    
                                                                                                    
                                                                                                    
                                                                                                    
                                                                                                    
                                                                                                    
                                                                                                    
                                                                                                    
                                                                                                    
                                                                                                    
                                                                                                    
                                                                                                    
                                                                                                    
                                                                                                    
                                                                                                    
                                                                                                    
                           
<?xpacket end="w"?></metadata>
<defs>
    <style>
      .cls-1 {
        fill: #20609f;
        fill-rule: evenodd;
      }
    </style>
  </defs>
  <path id="Icon" class="cls-1" d="M1145.36,477.194l-1.88,2.66a13.781,13.781,0,0,1,.93,2.227l-0.55.165a1.591,1.591,0,0,0-1.07,1.815v0.027a1.6,1.6,0,0,0,1.62,1.347l0.58-.027a14.834,14.834,0,0,1-.08,2.2,13.253,13.253,0,0,1-.94,3.465l-0.52-.22a1.586,1.586,0,0,0-1.98.66c-0.03.028-.03,0.055-0.06,0.082a1.543,1.543,0,0,0,.42,2.035l0.46,0.357a13,13,0,0,1-4.42,3.684l-0.28-.522a1.592,1.592,0,0,0-1.98-.742h-0.03a1.608,1.608,0,0,0-1.04,1.842l0.14,0.578a13.036,13.036,0,0,1-4.51.219c-0.41-.054-0.83-0.137-1.24-0.219l0.11-.523a1.581,1.581,0,0,0-.96-1.815,0.738,0.738,0,0,1-.08-0.027,1.6,1.6,0,0,0-2.01.715l-0.28.5a13.279,13.279,0,0,1-4.37-3.685l0.47-.357a1.585,1.585,0,0,0,.41-2.035,0.384,0.384,0,0,0-.05-0.082,1.581,1.581,0,0,0-1.98-.66l-0.52.22a13.055,13.055,0,0,1-1.02-5.663l0.63,0.027a1.555,1.555,0,0,0,1.62-1.32v-0.027a1.569,1.569,0,0,0-1.1-1.76l-0.6-.165a13.165,13.165,0,0,1,2.89-5.059l0.41,0.385a1.589,1.589,0,0,0,2.09.055,0.117,0.117,0,0,1,.08-0.055,1.576,1.576,0,0,0,.3-2.062l-0.3-.5a12.763,12.763,0,0,1,5.39-1.98l0.08,0.605a1.574,1.574,0,0,0,1.57,1.375h0.19a1.574,1.574,0,0,0,1.57-1.375l0.08-.632a16.225,16.225,0,0,1,2.34.522l2.25-2.227A16.005,16.005,0,1,0,1145.36,477.194Zm-14.26,5.544a3.316,3.316,0,0,0,.64,6.549h0.08a3.283,3.283,0,0,0,3.3-3.247l6.05-8.585,2.04-2.89a1.317,1.317,0,0,0-.03-1.321,1.385,1.385,0,0,0-.66-0.55,1.576,1.576,0,0,0-.49-0.11,1.273,1.273,0,0,0-.88.358l-2.37,2.311Z" transform="translate(-1116 -470)"/>
</svg>
