<svg xmlns="http://www.w3.org/2000/svg" width="32" height="32" viewBox="0 0 32 32">
  <metadata><?xpacket begin="﻿" id="W5M0MpCehiHzreSzNTczkc9d"?>
<x:xmpmeta xmlns:x="adobe:ns:meta/" x:xmptk="Adobe XMP Core 5.6-c138 79.159824, 2016/09/14-01:09:01        ">
   <rdf:RDF xmlns:rdf="http://www.w3.org/1999/02/22-rdf-syntax-ns#">
      <rdf:Description rdf:about=""/>
   </rdf:RDF>
</x:xmpmeta>
                                                                                                    
                                                                                                    
                                                                                                    
                                                                                                    
                                                                                                    
                                                                                                    
                                                                                                    
                                                                                                    
                                                                                                    
                                                                                                    
                                                                                                    
                                                                                                    
                                                                                                    
                                                                                                    
                                                                                                    
                                                                                                    
                                                                                                    
                                                                                                    
                                                                                                    
                                                                                                    
                           
<?xpacket end="w"?></metadata>
<defs>
    <style>
      .cls-1 {
        fill: #36be39;
        fill-rule: evenodd;
      }
    </style>
  </defs>
  <path id="Active_Icon" data-name="Active Icon" class="cls-1" d="M2353.62,630.5a1.264,1.264,0,0,0-.4-0.938l0.01,0.006a1.286,1.286,0,0,0-.94-0.4,1.264,1.264,0,0,0-.93.4l-6.8,6.8-4.13-4.132a1.3,1.3,0,0,0-1.87,0l0.01-.006a1.3,1.3,0,0,0,0,1.876l5.05,5.064a1.314,1.314,0,0,0,1.88,0l7.72-7.733A1.261,1.261,0,0,0,2353.62,630.5Zm-0.13-10.359a16.1,16.1,0,0,0-16.06,0,15.885,15.885,0,0,0-5.83,5.823,16.139,16.139,0,0,0,0,16.062,15.885,15.885,0,0,0,5.83,5.823,16.1,16.1,0,0,0,16.06,0,15.933,15.933,0,0,0,5.82-5.823,16.074,16.074,0,0,0,0-16.062A15.933,15.933,0,0,0,2353.49,620.137Zm-8.13.529A13.334,13.334,0,1,1,2332.03,634,13.335,13.335,0,0,1,2345.36,620.666Z" transform="translate(-2329.47 -618)"/>
</svg>
