<svg id="Layer_1" data-name="Layer 1" xmlns="http://www.w3.org/2000/svg" viewBox="0 0 73.65 94.69"><defs><style>.cls-1{fill:#2060A0;}</style></defs><title>icon_unlock</title><path class="cls-1" d="M67.34,36.82H57.87V24.2c0-15.36-6.94-24.2-21-24.2-13.89,0-21,8.84-21,24.2v2.1H26.3V22.09c0-7.79,4.21-11.57,10.52-11.57s10.52,3.79,10.52,11.57V36.82H5.26C2.31,36.82,0,40.19,0,43.14v41A7.73,7.73,0,0,0,5.05,90.9L11.36,93a42.24,42.24,0,0,0,10.31,1.68H52.19A42.25,42.25,0,0,0,62.29,93l6.31-2.1a7.73,7.73,0,0,0,5.05-6.73v-41C73.65,40.19,70.28,36.82,67.34,36.82ZM27.6,78.56l5-16.19a8.25,8.25,0,1,1,8.49,0l5,16.19H27.6Z" transform="translate(0 0)"/></svg>