<?xml version="1.0" encoding="utf-8"?>
<!-- Generator: Adobe Illustrator 19.2.1, SVG Export Plug-In . SVG Version: 6.00 Build 0)  -->
<svg version="1.1" id="Isolation_Mode" xmlns="http://www.w3.org/2000/svg" xmlns:xlink="http://www.w3.org/1999/xlink" x="0px"
	 y="0px" viewBox="0 0 112 112" style="enable-background:new 0 0 112 112;" xml:space="preserve">
<style type="text/css">
	.st0{fill:#2060A0;}
	.st1{fill:#FFFFFF;}
</style>
<path class="st0" d="M56,0C25.1,0,0,25.1,0,56c0,30.9,25.1,56,56,56s56-25.1,56-56C112,25.1,86.9,0,56,0L56,0z M56,108.6
	C27,108.6,3.4,85,3.4,56C3.4,27,27,3.4,56,3.4c29,0,52.6,23.6,52.6,52.6C108.6,85,85,108.6,56,108.6L56,108.6z"/>
<path class="st0" d="M56,6.7C28.8,6.7,6.7,28.8,6.7,56c0,27.2,22.1,49.3,49.3,49.3c27.2,0,49.3-22.1,49.3-49.3
	C105.3,28.8,83.2,6.7,56,6.7L56,6.7z"/>
<g>
	<path class="st1" d="M67.7,88.9c2.4,2.4,6.4,2.4,8.8,0l1.5-1.5c2.3-2.3,2.3-6.1,0-8.5L54.4,55.4L44.2,65.5L67.7,88.9z M68.7,82.3
		l0.8-0.8c0.5-0.5,0.5-1.2,0-1.7s-1.2-0.5-1.7,0L67,80.6l-4.5-4.5l0.8-0.8c0.5-0.5,0.5-1.2,0-1.7s-1.2-0.5-1.7,0l-0.8,0.8l-7.1-7.1
		l0.8-0.8c0.5-0.5,0.5-1.2,0-1.7s-1.2-0.5-1.7,0l-0.8,0.8l-2.4-2.4l1.7-1.7l0.8,0.8c1.3-0.6,3-0.4,4.1,0.7s1.3,2.7,0.7,4.1l4,4
		c1.3-0.6,3-0.4,4.1,0.7c1.1,1.1,1.3,2.7,0.7,4.1l1.4,1.4c1.3-0.6,3-0.4,4.1,0.7s1.3,2.7,0.7,4.1l4,4l-1.7,1.7L68.7,82.3z"/>
	<path class="st1" d="M34.5,28.7l-17,17c-2.3,2.3-2.3,6.1,0,8.4l11.1,11.1c3.7,3.7,9.7,3.7,13.4,0L53.2,54c4.2-4.2,4.2-10.9,0-15.1
		L42.9,28.7C40.6,26.4,36.9,26.4,34.5,28.7z M27,44l5.9-5.9c0.9-0.9,2.5-0.9,3.4,0c0.9,0.9,0.9,2.5,0,3.4l-5.9,5.9
		c-0.9,0.9-2.5,0.9-3.4,0C26,46.5,26,44.9,27,44z M51.9,46.1L34.9,63l-1.3-1.3l16.9-16.9L51.9,46.1z M49,43.2L32.1,60.2l-1.3-1.3
		L47.8,42L49,43.2z M46.2,40.4L29.3,57.3L28,56.1L45,39.2L46.2,40.4z"/>
</g>
<g>
	<g>
		<path class="st1" d="M79.9,56.1h-3.6c0-11.2-9.1-20.3-20.3-20.3v-3.6C69.1,32.1,79.9,42.9,79.9,56.1z"/>
	</g>
	<g>
		<path class="st1" d="M88.6,56.1h-4.8c0-15.4-12.5-27.9-27.9-27.9v-4.8C73.9,23.4,88.6,38.1,88.6,56.1z"/>
	</g>
	<g>
		<path class="st1" d="M98.8,56.1h-6c0-20.3-16.5-36.9-36.9-36.9v-6C79.6,13.2,98.8,32.4,98.8,56.1z"/>
	</g>
</g>
</svg>
