<svg xmlns="http://www.w3.org/2000/svg" width="22" height="37" viewBox="0 0 22 37">
  <metadata><?xpacket begin="﻿" id="W5M0MpCehiHzreSzNTczkc9d"?>
<x:xmpmeta xmlns:x="adobe:ns:meta/" x:xmptk="Adobe XMP Core 5.6-c138 79.159824, 2016/09/14-01:09:01        ">
   <rdf:RDF xmlns:rdf="http://www.w3.org/1999/02/22-rdf-syntax-ns#">
      <rdf:Description rdf:about=""/>
   </rdf:RDF>
</x:xmpmeta>
                                                                                                    
                                                                                                    
                                                                                                    
                                                                                                    
                                                                                                    
                                                                                                    
                                                                                                    
                                                                                                    
                                                                                                    
                                                                                                    
                                                                                                    
                                                                                                    
                                                                                                    
                                                                                                    
                                                                                                    
                                                                                                    
                                                                                                    
                                                                                                    
                                                                                                    
                                                                                                    
                           
<?xpacket end="w"?></metadata>
<defs>
    <style>
      .cls-1 {
        fill: #20609f;
        fill-rule: evenodd;
      }
    </style>
  </defs>
  <path id="Locate_Vehicle" data-name="Locate Vehicle" class="cls-1" d="M510,1517a0.921,0.921,0,0,1-.4-0.09,0.843,0.843,0,0,1-.314-0.25q-0.036-.06-0.492-0.66c-0.305-.41-0.7-0.96-1.174-1.67s-1.018-1.56-1.621-2.53-1.221-2.06-1.854-3.26c-0.371-.69-0.723-1.39-1.057-2.08s-0.648-1.38-.941-2.07-0.567-1.36-.824-2.03-0.493-1.33-.708-1.98c-0.262-.83-0.5-1.65-0.7-2.45s-0.373-1.59-.511-2.37-0.239-1.53-.3-2.27-0.1-1.47-.1-2.18a10.942,10.942,0,0,1,.86-4.32,11.069,11.069,0,0,1,5.858-5.91,10.858,10.858,0,0,1,8.564,0,11.069,11.069,0,0,1,5.858,5.91,10.942,10.942,0,0,1,.86,4.32c0,0.71-.033,1.44-0.1,2.18s-0.168,1.5-.305,2.27-0.308,1.57-.511,2.37-0.436,1.62-.7,2.45q-0.323.975-.708,1.98c-0.257.67-.532,1.34-0.824,2.03s-0.606,1.38-.941,2.07-0.686,1.39-1.057,2.08c-0.633,1.2-1.251,2.28-1.854,3.26s-1.144,1.82-1.621,2.53-0.869,1.26-1.174,1.67-0.469.62-.492,0.66a0.843,0.843,0,0,1-.314.25A0.924,0.924,0,0,1,510,1517Zm0-20.34a5.288,5.288,0,0,1-2.141-.44,5.557,5.557,0,0,1-2.929-2.96,5.413,5.413,0,0,1-.43-2.15,5.509,5.509,0,0,1,1.612-3.93,5.658,5.658,0,0,1,1.747-1.18,5.429,5.429,0,0,1,4.282,0,5.658,5.658,0,0,1,1.747,1.18,5.509,5.509,0,0,1,1.612,3.93,5.413,5.413,0,0,1-.43,2.15,5.557,5.557,0,0,1-2.929,2.96A5.288,5.288,0,0,1,510,1496.66Z" transform="translate(-499 -1480)"/>
</svg>
