<?xml version="1.0" encoding="utf-8"?>
<!-- Generator: Adobe Illustrator 21.1.0, SVG Export Plug-In . SVG Version: 6.00 Build 0)  -->
<svg version="1.1" id="Layer_1" xmlns="http://www.w3.org/2000/svg" xmlns:xlink="http://www.w3.org/1999/xlink" x="0px" y="0px"
	 viewBox="0 0 112 112" style="enable-background:new 0 0 112 112;" xml:space="preserve">
<style type="text/css">
	.st0{fill:none;enable-background:new    ;}
	.st1{fill:#205F9E;}
	.st2{fill:#FFFFFF;}
</style>
<path class="st0" d="M0,0"/>
<circle class="st1" cx="56" cy="56" r="49.4"/>
<path class="st1" d="M56,3c29.2,0,53,23.8,53,53s-23.8,53-53,53S3,85.2,3,56S26.8,3,56,3 M56,0C25.1,0,0,25.1,0,56s25.1,56,56,56
	s56-25.1,56-56S86.9,0,56,0L56,0z"/>
<path class="st2" d="M95.3,63.3c-0.3-0.1-1.3-0.7-1.3-0.7s0.6-0.7,0.9-1.9c0.3-1,0.6-2.2,0.1-2.8c-0.4-0.6-0.7-0.7-0.7-0.7v-1.5
	c0,0-0.1-0.4-1.6-1.5c-1.3-1-2.3-1.5-8.6-2.6s-7.5-1-7.5-1s-2-0.3-3.2-0.6c-1.3-0.4-2.6-1.3-2.9-1.3c-0.1,0-8.7-4.4-8.7-4.4
	s-3-1.3-4.9-1.6c-2-0.4-3.2-0.7-5.7-0.7c-2.5,0.1-7.7,0.1-10.7,0.1c-3,0-5.9,0.4-5.9,0.4l-1.2-0.9c0,0-0.4-0.1-1-0.1s-1.2,0-1.2,0
	l0.1,1.3c0,0-0.9,0-2.3,0.1c-1.5,0.1-1.3,0.1-2.2,0.3c-0.7,0.3-4.1,0.4-4.1,0.4c0.3,0.6,0.7,0.7,0.7,0.7l-5.5,4.8c0,0,0,0,0,0.6
	s0,3.8,0,3.8L16,55.9c0,0-0.4,0.9-0.4,1.5c0,0.4,0.3,2.3,0.3,2.3s0,0.9,0.3,1.6c0.3,0.9,1.2,1.3,1.2,1.3l4.1,1.2
	c0,0,0.3-0.1,0.9-0.1c0.6,0,1-0.1,1-0.1s0,0.1,0,0.4c0.3,3,2.9,5.4,6.1,5.4c2.6,0,4.8-1.6,5.7-4.1c0.1-0.3,0.3-0.4,0.3-0.4
	s0.4-0.1,0.7,0c0.4,0.3,0.9,0.6,0.9,0.6l-0.1,0.3h36c0,0,0-0.4,0-1.2c0-0.6,0-1.2,0.4-1.3c0.1,0,0.3-0.1,0.4-0.1c0,0.1,0,0.1,0,0.3
	c0,3.3,2.6,5.9,5.9,5.9c2.9,0,5.2-1.9,5.9-4.5c0,0,0.1,0,0.4,0.1c0.4,0.1,3.9-0.1,5.2-0.3c1.3-0.1,2.5-0.3,2.5-0.3s0.1-0.4,0.6-0.4
	c0.6-0.1,0.9-0.3,0.9-0.3S95.5,63.3,95.3,63.3z"/>
</svg>
