<?xml version="1.0" encoding="utf-8"?>
<!-- Generator: Adobe Illustrator 21.1.0, SVG Export Plug-In . SVG Version: 6.00 Build 0)  -->
<svg version="1.1" id="Layer_1" xmlns="http://www.w3.org/2000/svg" xmlns:xlink="http://www.w3.org/1999/xlink" x="0px" y="0px"
	 viewBox="0 0 32 32" style="enable-background:new 0 0 32 32;" xml:space="preserve">
<style type="text/css">
	.st0{fill:#CBCDCB;}
</style>
<path id="Inactive" class="st0" d="M24,2.1C19-0.7,12.9-0.7,8,2.1C5.5,3.5,3.5,5.5,2.1,8c-2.9,5-2.9,11.1,0,16.1
	c1.4,2.4,3.4,4.4,5.8,5.8c5,2.9,11.1,2.9,16.1,0c2.4-1.4,4.4-3.4,5.8-5.8c2.9-5,2.9-11.1,0-16.1C28.4,5.5,26.4,3.5,24,2.1z
	 M15.9,2.7c7.4,0,13.3,6,13.3,13.3s-6,13.3-13.3,13.3c-7.4,0-13.3-6-13.3-13.3c0,0,0,0,0,0C2.6,8.6,8.5,2.7,15.9,2.7z M9.5,15h13v3
	h-13V15z"/>
</svg>
