<svg xmlns="http://www.w3.org/2000/svg" width="39" height="39" viewBox="0 0 39 39">
  <metadata><?xpacket begin="﻿" id="W5M0MpCehiHzreSzNTczkc9d"?>
<x:xmpmeta xmlns:x="adobe:ns:meta/" x:xmptk="Adobe XMP Core 5.6-c138 79.159824, 2016/09/14-01:09:01        ">
   <rdf:RDF xmlns:rdf="http://www.w3.org/1999/02/22-rdf-syntax-ns#">
      <rdf:Description rdf:about=""/>
   </rdf:RDF>
</x:xmpmeta>
                                                                                                    
                                                                                                    
                                                                                                    
                                                                                                    
                                                                                                    
                                                                                                    
                                                                                                    
                                                                                                    
                                                                                                    
                                                                                                    
                                                                                                    
                                                                                                    
                                                                                                    
                                                                                                    
                                                                                                    
                                                                                                    
                                                                                                    
                                                                                                    
                                                                                                    
                                                                                                    
                           
<?xpacket end="w"?></metadata>
<defs>
    <style>
      .cls-1 {
        fill: #20609f;
        fill-rule: evenodd;
      }
    </style>
  </defs>
  <path id="Coupon_Icon" data-name="Coupon Icon" class="cls-1" d="M566.307,1211.01h-12.8a0.094,0.094,0,0,1-.01-0.01,3.808,3.808,0,0,0-2.7,1.1l-18.695,18.65a3.8,3.8,0,0,0,0,5.37l12.8,12.77a3.827,3.827,0,0,0,5.39,0l18.6-18.61a3.732,3.732,0,0,0,1.11-2.73v-12.76A3.7,3.7,0,0,0,566.307,1211.01Zm0.835,15.65a2.905,2.905,0,0,1-.91,2.09l-16.525,16.47a2.928,2.928,0,0,1-4.128-.01l-9.8-9.78a2.918,2.918,0,0,1,0-4.12l16.543-16.52a2.891,2.891,0,0,1,2.07-.87s0-.06.007-0.06h9.8a3.044,3.044,0,0,1,2.947,3.02v9.78Zm-1.509-9.83a1.39,1.39,0,1,1-1.389-1.38A1.388,1.388,0,0,1,565.633,1216.83Zm-20.12,10.47-1.264,1.31-1.9-1.82,1.263-1.31Zm3.3,3.15-1.264,1.32-1.905-1.82,1.264-1.32Zm3.429,3.28-1.264,1.32-1.9-1.83,1.264-1.31Zm3.3,3.16-1.263,1.31-1.906-1.82,1.264-1.31Z" transform="translate(-531 -1211)"/>
</svg>
