<?xml version="1.0" encoding="utf-8"?>
<!-- Generator: Adobe Illustrator 21.1.0, SVG Export Plug-In . SVG Version: 6.00 Build 0)  -->
<svg version="1.1" id="Layer_1" xmlns="http://www.w3.org/2000/svg" xmlns:xlink="http://www.w3.org/1999/xlink" x="0px" y="0px"
	 viewBox="0 0 76 86.2" style="enable-background:new 0 0 76 86.2;" xml:space="preserve">
<style type="text/css">
	.st0{fill:#20609F;}
</style>
<path class="st0" d="M74.6,76.7c-0.2,0.4-0.6,0.6-1,0.7l-23.2,8c-0.5,0.2-1.1,0.2-1.7,0l-22.3-7.6L4.2,85.4
	c-0.3,0.1-0.6,0.2-0.9,0.2c-0.5,0-0.9-0.1-1.3-0.4c-0.7-0.4-1-0.9-1-1.6V39.7c0-0.4,0.1-0.8,0.4-1.1c0.2-0.3,0.6-0.6,1-0.7l18.3-6.3
	L19,27.9c-0.9-1.8-1.3-4.2-1.3-7.1c0-5.6,1.9-10.3,5.9-14.3c3.9-3.9,8.6-5.9,14.2-5.9c5.5,0,10.3,2,14.2,5.9c3.9,4,5.9,8.7,5.9,14.3
	c0,2.9-0.4,5.3-1.3,7.1l-4,8.7l19.3-6.7c0.7-0.3,1.4-0.2,2.1,0.2s1,1,1,1.7v43.8C75,76,74.9,76.4,74.6,76.7z M5.6,41.1v39.5
	l19.7-6.7V41.4l-2.9-6.1L5.6,41.1z M44.9,13.7c-2-2-4.3-3-7.1-3s-5.2,1-7.1,3c-2,2-3,4.3-3,7.1s1,5.2,3,7.2c1.9,1.9,4.3,2.9,7.1,2.9
	s5.1-1,7.1-2.9c2-2,2.9-4.4,2.9-7.2S46.9,15.7,44.9,13.7z M42.3,58.5c-0.4,0.8-1,1.5-1.9,2c-0.8,0.5-1.7,0.8-2.6,0.8
	c-1,0-1.8-0.3-2.7-0.8c-0.8-0.5-1.4-1.2-1.8-2l-5.7-12.2v27.6L48.4,81V45.4L42.3,58.5z M70.4,34.7l-19.7,6.8V81l19.7-6.7V34.7z"/>
</svg>
