<svg xmlns="http://www.w3.org/2000/svg" width="31.812" height="40" viewBox="0 0 31.812 40">
  <metadata><?xpacket begin="﻿" id="W5M0MpCehiHzreSzNTczkc9d"?>
<x:xmpmeta xmlns:x="adobe:ns:meta/" x:xmptk="Adobe XMP Core 5.6-c138 79.159824, 2016/09/14-01:09:01        ">
   <rdf:RDF xmlns:rdf="http://www.w3.org/1999/02/22-rdf-syntax-ns#">
      <rdf:Description rdf:about=""/>
   </rdf:RDF>
</x:xmpmeta>
                                                                                                    
                                                                                                    
                                                                                                    
                                                                                                    
                                                                                                    
                                                                                                    
                                                                                                    
                                                                                                    
                                                                                                    
                                                                                                    
                                                                                                    
                                                                                                    
                                                                                                    
                                                                                                    
                                                                                                    
                                                                                                    
                                                                                                    
                                                                                                    
                                                                                                    
                                                                                                    
                           
<?xpacket end="w"?></metadata>
<defs>
    <style>
      .cls-1 {
        fill: #20609f;
        fill-rule: evenodd;
      }
    </style>
  </defs>
  <path id="contact-icon" class="cls-1" d="M104.317,525.277a0.6,0.6,0,0,0,.582.616h0.011c0.12,1.622,1.4,3.244,2.969,3.244s2.852-1.622,2.971-3.244h0.011a0.6,0.6,0,0,0,.583-0.616,0.616,0.616,0,0,0-.346-0.56,3.738,3.738,0,0,0,.183-1.161,3.406,3.406,0,1,0-6.8,0,3.8,3.8,0,0,0,.182,1.161A0.614,0.614,0,0,0,104.317,525.277Zm-3.662,9.611h14.45a0.315,0.315,0,0,0,.317-0.315v-1.127a0.317,0.317,0,0,0-.1-0.226,10.857,10.857,0,0,0-4.908-2.743,0.344,0.344,0,0,0-.151-0.038H110.1a0.312,0.312,0,0,0-.15.038,4.877,4.877,0,0,1-4.144,0,0.315,0.315,0,0,0-.15-0.038h-0.12a0.363,0.363,0,0,0-.073.008,10.824,10.824,0,0,0-5.031,2.773,0.317,0.317,0,0,0-.1.226v1.127A0.315,0.315,0,0,0,100.655,534.888Zm15.5,4.021H99.6a0.542,0.542,0,1,0,0,1.084h16.556A0.542,0.542,0,1,0,116.158,538.909Zm7.849-23.261-5.87-5.759a1.351,1.351,0,0,0-.955-0.39H93.945a1.358,1.358,0,0,0-1.363,1.354v37.292a1.359,1.359,0,0,0,1.363,1.355h29.108a1.358,1.358,0,0,0,1.361-1.355V516.613A1.347,1.347,0,0,0,124.007,515.648Zm-28.7,31.142V512.208h21.059v4.419a0.814,0.814,0,0,0,.816.813h4.508v29.35H95.307Z" transform="translate(-92.594 -509.5)"/>
</svg>
