<svg xmlns="http://www.w3.org/2000/svg" xmlns:xlink="http://www.w3.org/1999/xlink" width="32.906" height="36" viewBox="0 0 32.906 36">
  <metadata><?xpacket begin="﻿" id="W5M0MpCehiHzreSzNTczkc9d"?>
<x:xmpmeta xmlns:x="adobe:ns:meta/" x:xmptk="Adobe XMP Core 5.6-c138 79.159824, 2016/09/14-01:09:01        ">
   <rdf:RDF xmlns:rdf="http://www.w3.org/1999/02/22-rdf-syntax-ns#">
      <rdf:Description rdf:about=""/>
   </rdf:RDF>
</x:xmpmeta>
                                                                                                    
                                                                                                    
                                                                                                    
                                                                                                    
                                                                                                    
                                                                                                    
                                                                                                    
                                                                                                    
                                                                                                    
                                                                                                    
                                                                                                    
                                                                                                    
                                                                                                    
                                                                                                    
                                                                                                    
                                                                                                    
                                                                                                    
                                                                                                    
                                                                                                    
                                                                                                    
                           
<?xpacket end="w"?></metadata>
<defs>
    <style>
      .cls-1 {
        fill: #fff;
        fill-rule: evenodd;
        filter: url(#filter);
      }
    </style>
    <filter id="filter" x="500" y="1147" width="32.906" height="36" filterUnits="userSpaceOnUse">
      <feFlood result="flood" flood-color="#20609f"/>
      <feComposite result="composite" operator="in" in2="SourceGraphic"/>
      <feBlend result="blend" in2="SourceGraphic"/>
    </filter>
  </defs>
  <path id="On_Btn" data-name="On Btn" class="cls-1" d="M531.185,1158.97a16.256,16.256,0,0,0-4.855-5.84,2.652,2.652,0,0,0-2.036-.54,2.532,2.532,0,0,0-1.8,1.08,2.644,2.644,0,0,0-.525,2.04,2.693,2.693,0,0,0,1.061,1.83,11.055,11.055,0,0,1,4.395,8.85,10.84,10.84,0,0,1-.869,4.29,10.917,10.917,0,0,1-5.852,5.91,10.84,10.84,0,0,1-8.51,0,10.917,10.917,0,0,1-5.852-5.91,10.823,10.823,0,0,1-.869-4.29,11.055,11.055,0,0,1,4.4-8.85,2.693,2.693,0,0,0,1.061-1.83,2.64,2.64,0,0,0-.526-2.04,2.522,2.522,0,0,0-1.789-1.08,2.7,2.7,0,0,0-2.047.54,16.259,16.259,0,0,0-4.856,5.84,16.7,16.7,0,0,0-.418,13.87,16.918,16.918,0,0,0,3.516,5.3,16.68,16.68,0,0,0,5.252,3.54,16.117,16.117,0,0,0,12.776,0,16.68,16.68,0,0,0,5.252-3.54,16.918,16.918,0,0,0,3.516-5.3A16.7,16.7,0,0,0,531.185,1158.97Zm-12.808-11.14a2.679,2.679,0,0,0-3.858,0,2.68,2.68,0,0,0-.815,1.95v13.84a2.68,2.68,0,0,0,.815,1.95,2.679,2.679,0,0,0,3.858,0,2.684,2.684,0,0,0,.815-1.95v-13.84A2.684,2.684,0,0,0,518.377,1147.83Z" transform="translate(-500 -1147)"/>
</svg>
