<?xml version="1.0" encoding="utf-8"?>
<!-- Generator: Adobe Illustrator 21.0.2, SVG Export Plug-In . SVG Version: 6.00 Build 0)  -->
<svg version="1.1" id="Layer_1" xmlns="http://www.w3.org/2000/svg" xmlns:xlink="http://www.w3.org/1999/xlink" x="0px" y="0px"
	 viewBox="0 0 61.7 61.7" style="enable-background:new 0 0 61.7 61.7;" xml:space="preserve">
<style type="text/css">
	.st0{fill:#8D8D8D;}
</style>
<path class="st0" d="M61.7,30.9C61.7,13.8,47.9,0,30.9,0S0,13.8,0,30.9s13.8,30.9,30.9,30.9S61.7,47.9,61.7,30.9z M35.4,15.8
	c0,0.6-0.5,1.1-1.1,1.1h-6.8c-0.6,0-1.1-0.5-1.1-1.1v-5.7c0-0.6,0.5-1.1,1.1-1.1h6.8c0.6,0,1.1,0.5,1.1,1.1V15.8z M39.9,47.6
	c0,0.6-0.5,1.1-1.1,1.1H22.8c-0.6,0-1.1-0.5-1.1-1.1V42c0-0.6,0.5-1.1,1.1-1.1h3.4V29.5h-3.4c-0.6,0-1.1-0.5-1.1-1.1v-5.7
	c0-0.6,0.5-1.1,1.1-1.1h11.4c0.6,0,1.1,0.5,1.1,1.1v18.2h3.4c0.6,0,1.1,0.5,1.1,1.1L39.9,47.6L39.9,47.6z"/>
</svg>
